<svg width="217" height="80" viewBox="0 0 217 80" fill="none" xmlns="http://www.w3.org/2000/svg">
<path d="M144.541 24.3743V77.0643H73.1047V24.3743C73.1047 22.9398 74.1903 21.7749 75.5306 21.7749H142.115C143.455 21.7749 144.541 22.9398 144.541 24.3743Z" fill="#5DDCB8"/>
<path d="M98.0986 18.9176C97.9386 18.9176 97.7801 18.8861 97.6323 18.8249C97.4844 18.7637 97.3501 18.6739 97.237 18.5608C97.1238 18.4476 97.0341 18.3133 96.9728 18.1655C96.9116 18.0176 96.8801 17.8592 96.8801 17.6992V5.57327C96.8801 3.28911 98.7383 1.43091 101.022 1.43091H104.745C105.418 1.43091 105.963 1.97628 105.963 2.64935C105.963 3.32241 105.418 3.86778 104.745 3.86778H101.022C100.082 3.86778 99.317 4.6328 99.317 5.57327V17.6992C99.317 17.8592 99.2855 18.0176 99.2243 18.1654C99.163 18.3133 99.0733 18.4476 98.9601 18.5607C98.847 18.6739 98.7127 18.7636 98.5648 18.8249C98.417 18.8861 98.2586 18.9176 98.0986 18.9176ZM130.209 18.9176C130.049 18.9176 129.89 18.8861 129.742 18.8249C129.594 18.7637 129.46 18.6739 129.347 18.5608C129.234 18.4476 129.144 18.3133 129.083 18.1655C129.022 18.0176 128.99 17.8592 128.99 17.6992V5.57327C128.99 4.6328 128.226 3.86778 127.286 3.86778H123.244C122.571 3.86778 122.025 3.32241 122.025 2.64935C122.025 1.97628 122.571 1.43091 123.244 1.43091H127.286C129.57 1.43091 131.427 3.28911 131.427 5.57327V17.6992C131.427 17.8592 131.396 18.0176 131.334 18.1654C131.273 18.3133 131.183 18.4476 131.07 18.5607C130.957 18.6739 130.823 18.7636 130.675 18.8249C130.527 18.8861 130.369 18.9176 130.209 18.9176Z" fill="#32856E"/>
<path d="M139.628 28.4559V64.7426C139.628 65.6394 138.9 66.3672 138.004 66.3672H74.7489C73.8521 66.3672 73.1243 65.6394 73.1243 64.7426V28.4559C73.1243 27.5591 73.8521 26.8313 74.7489 26.8313H138.004C138.9 26.8313 139.628 27.5591 139.628 28.4559Z" fill="#F9F4FE"/>
<path d="M109.97 56.5131H106.293C103.314 56.5131 100.89 54.0896 100.89 51.1107V48.7609C100.89 47.1258 99.5598 45.7953 97.9244 45.7953H94.2475C92.6124 45.7953 91.2818 47.1256 91.2818 48.7609V53.2352C91.2818 53.9083 90.7365 54.4537 90.0634 54.4537C89.3903 54.4537 88.845 53.9083 88.845 53.2352V48.7609C88.845 45.7819 91.2685 43.3584 94.2475 43.3584H97.9244C100.903 43.3584 103.327 45.7819 103.327 48.7609V51.1107C103.327 52.7459 104.657 54.0763 106.293 54.0763H109.97C111.605 54.0763 112.935 52.7461 112.935 51.1107V44.5768C112.935 43.9038 113.48 43.3584 114.154 43.3584C114.827 43.3584 115.372 43.9038 115.372 44.5768V51.1107C115.372 54.0896 112.948 56.5131 109.97 56.5131Z" fill="#32856E"/>
<path d="M79.6567 66.3672H74.7489C73.8521 66.3672 73.1243 65.6394 73.1243 64.7426V28.4559C73.1243 27.5591 73.8521 26.8313 74.7489 26.8313H79.6567C78.7323 26.8313 77.9834 27.5802 77.9834 28.5046V64.6938C77.9834 65.6182 78.7323 66.3672 79.6567 66.3672Z" fill="#5DDCB8"/>
<path d="M147.966 73.3062V75.5956C147.966 78.0286 146.181 80 143.979 80H72.6876C70.4862 80 68.7012 78.0286 68.7012 75.5956V73.3062C68.7012 72.1384 69.5573 71.1929 70.6147 71.1929H100.435L108.333 72.6821L116.232 71.1929H146.052C147.109 71.1929 147.966 72.1384 147.966 73.3062Z" fill="#5DDCB8"/>
<path d="M116.594 71.4358V74.6156C116.594 74.7475 116.568 74.8781 116.518 74.9999C116.467 75.1217 116.393 75.2324 116.3 75.3257C116.207 75.4189 116.096 75.4929 115.974 75.5434C115.853 75.5938 115.722 75.6198 115.59 75.6197H101.02C100.888 75.6198 100.757 75.5938 100.635 75.5434C100.513 75.4929 100.403 75.4189 100.309 75.3257C100.216 75.2324 100.142 75.1217 100.092 74.9999C100.041 74.8781 100.015 74.7475 100.015 74.6156V71.4358H116.594Z" fill="#32856E"/>
<path d="M90.0635 61.6543C92.8364 61.6543 95.0843 59.4065 95.0843 56.6336C95.0843 53.8607 92.8364 51.6128 90.0635 51.6128C87.2906 51.6128 85.0427 53.8607 85.0427 56.6336C85.0427 59.4065 87.2906 61.6543 90.0635 61.6543Z" fill="#6CEBC6"/>
<path d="M90.0629 57.8519C90.7358 57.8519 91.2814 57.3064 91.2814 56.6335C91.2814 55.9606 90.7358 55.415 90.0629 55.415C89.39 55.415 88.8445 55.9606 88.8445 56.6335C88.8445 57.3064 89.39 57.8519 90.0629 57.8519Z" fill="#686878"/>
<path d="M130.962 16.4033H129.455C129.279 16.4033 129.105 16.4379 128.943 16.5052C128.781 16.5725 128.633 16.6711 128.509 16.7954C128.384 16.9197 128.286 17.0673 128.218 17.2298C128.151 17.3922 128.116 17.5663 128.116 17.7421V19.2753C128.116 26.889 121.991 33.1 114.408 33.236C106.567 33.3765 100.191 26.9244 100.191 19.0829V17.7423C100.191 17.5665 100.156 17.3924 100.089 17.2299C100.021 17.0675 99.9228 16.9199 99.7985 16.7956C99.6741 16.6712 99.5265 16.5726 99.3641 16.5054C99.2017 16.4381 99.0275 16.4035 98.8517 16.4035H97.3454C97.1696 16.4035 96.9955 16.4381 96.833 16.5054C96.6706 16.5726 96.523 16.6712 96.3987 16.7956C96.2743 16.9199 96.1757 17.0675 96.1085 17.2299C96.0412 17.3924 96.0066 17.5665 96.0066 17.7423V19.2754C96.0066 28.1902 102.468 35.6233 110.953 37.1392C111.593 37.2536 112.062 37.8066 112.062 38.4569V44.4046C112.062 44.5805 112.096 44.7546 112.163 44.917C112.231 45.0795 112.329 45.2271 112.454 45.3514C112.578 45.4757 112.726 45.5743 112.888 45.6416C113.05 45.7089 113.225 45.7435 113.4 45.7435H114.907C115.082 45.7435 115.257 45.7089 115.419 45.6416C115.581 45.5743 115.729 45.4757 115.853 45.3514C115.978 45.2271 116.076 45.0795 116.144 44.917C116.211 44.7546 116.246 44.5805 116.245 44.4046V38.4527C116.245 37.8036 116.712 37.2511 117.351 37.1356C125.855 35.5971 132.3 28.0409 132.3 19.0616V17.7425C132.301 17.5666 132.266 17.3925 132.199 17.23C132.131 17.0675 132.033 16.9199 131.908 16.7955C131.784 16.6712 131.637 16.5725 131.474 16.5052C131.312 16.4379 131.137 16.4033 130.962 16.4033Z" fill="#4BBE9E"/>
<path d="M106.236 5.29874C107.699 5.29874 108.885 4.11258 108.885 2.64937C108.885 1.18616 107.699 0 106.236 0C104.772 0 103.586 1.18616 103.586 2.64937C103.586 4.11258 104.772 5.29874 106.236 5.29874Z" fill="#6CEBC6"/>
<path d="M122.073 5.29874C123.536 5.29874 124.722 4.11258 124.722 2.64937C124.722 1.18616 123.536 0 122.073 0C120.61 0 119.423 1.18616 119.423 2.64937C119.423 4.11258 120.61 5.29874 122.073 5.29874Z" fill="#6CEBC6"/>
</svg>
