<svg width="218" height="80" viewBox="0 0 218 80" fill="none" xmlns="http://www.w3.org/2000/svg">
<path d="M110.527 66.6666H141.002C143.947 66.6666 146.335 64.2788 146.335 61.3334V56H105.404L110.527 66.6666Z" fill="#F9F4FE"/>
<path d="M76.9964 23.9999V61.3331H141.002C143.947 61.3331 146.335 58.9453 146.335 55.9998V23.9999L108.999 10.6665L76.9964 23.9999Z" fill="#F9F4FE"/>
<path d="M136.917 34.6668H139.75C140.081 34.6668 140.399 34.5351 140.634 34.3007C140.868 34.0662 141 33.7483 141 33.4168V30.5835C141 30.252 140.868 29.934 140.634 29.6996C140.399 29.4652 140.081 29.3335 139.75 29.3335H136.917C136.585 29.3335 136.267 29.4652 136.033 29.6996C135.798 29.934 135.667 30.252 135.667 30.5835V33.4168C135.667 33.7483 135.798 34.0662 136.033 34.3007C136.267 34.5351 136.585 34.6668 136.917 34.6668ZM126.25 34.6668H129.083C129.415 34.6668 129.733 34.5351 129.967 34.3007C130.201 34.0662 130.333 33.7483 130.333 33.4168V30.5835C130.333 30.252 130.201 29.934 129.967 29.6996C129.733 29.4652 129.415 29.3335 129.083 29.3335H126.25C125.918 29.3335 125.6 29.4652 125.366 29.6996C125.132 29.934 125 30.252 125 30.5835V33.4168C125 33.7483 125.132 34.0662 125.366 34.3007C125.6 34.5351 125.918 34.6668 126.25 34.6668ZM115.583 34.6668H118.417C118.748 34.6668 119.066 34.5351 119.3 34.3007C119.535 34.0662 119.667 33.7483 119.667 33.4168V30.5835C119.667 30.252 119.535 29.934 119.3 29.6996C119.066 29.4652 118.748 29.3335 118.417 29.3335H115.583C115.252 29.3335 114.934 29.4652 114.699 29.6996C114.465 29.934 114.333 30.252 114.333 30.5835V33.4168C114.333 33.7483 114.465 34.0662 114.699 34.3007C114.934 34.5351 115.252 34.6668 115.583 34.6668ZM104.917 34.6668H107.75C108.081 34.6668 108.399 34.5351 108.634 34.3007C108.868 34.0662 109 33.7483 109 33.4168V30.5835C109 30.252 108.868 29.934 108.634 29.6996C108.399 29.4652 108.081 29.3335 107.75 29.3335H104.917C104.585 29.3335 104.267 29.4652 104.033 29.6996C103.798 29.934 103.667 30.252 103.667 30.5835V33.4168C103.667 33.7483 103.798 34.0662 104.033 34.3007C104.267 34.5351 104.585 34.6668 104.917 34.6668ZM94.2518 34.6668H97.085C97.4166 34.6668 97.7345 34.5351 97.9689 34.3007C98.2033 34.0662 98.335 33.7483 98.335 33.4168V30.5835C98.335 30.252 98.2033 29.934 97.9689 29.6996C97.7345 29.4652 97.4166 29.3335 97.085 29.3335H94.2518C93.9202 29.3335 93.6023 29.4652 93.3679 29.6996C93.1334 29.934 93.0018 30.252 93.0018 30.5835V33.4168C93.0018 33.7483 93.1334 34.0662 93.3679 34.3007C93.6023 34.5351 93.9202 34.6668 94.2518 34.6668ZM83.585 34.6668H86.4183C86.7498 34.6668 87.0678 34.5351 87.3022 34.3007C87.5366 34.0662 87.6683 33.7483 87.6683 33.4168V30.5835C87.6683 30.252 87.5366 29.934 87.3022 29.6996C87.0678 29.4652 86.7498 29.3335 86.4183 29.3335H83.585C83.2535 29.3335 82.9356 29.4652 82.7011 29.6996C82.4667 29.934 82.335 30.252 82.335 30.5835V33.4168C82.335 33.7483 82.4667 34.0662 82.7011 34.3007C82.9356 34.5351 83.2535 34.6668 83.585 34.6668ZM136.917 45.3333H139.75C140.081 45.3333 140.399 45.2016 140.634 44.9672C140.868 44.7328 141 44.4149 141 44.0833V41.2501C141 40.9185 140.868 40.6006 140.634 40.3662C140.399 40.1318 140.081 40.0001 139.75 40.0001H136.917C136.585 40.0001 136.267 40.1318 136.033 40.3662C135.798 40.6006 135.667 40.9185 135.667 41.2501V44.0833C135.667 44.4149 135.798 44.7328 136.033 44.9672C136.267 45.2016 136.585 45.3333 136.917 45.3333ZM126.25 45.3333H129.083C129.415 45.3333 129.733 45.2016 129.967 44.9672C130.201 44.7328 130.333 44.4149 130.333 44.0833V41.2501C130.333 40.9185 130.201 40.6006 129.967 40.3662C129.733 40.1318 129.415 40.0001 129.083 40.0001H126.25C125.918 40.0001 125.6 40.1318 125.366 40.3662C125.132 40.6006 125 40.9185 125 41.2501V44.0833C125 44.4149 125.132 44.7328 125.366 44.9672C125.6 45.2016 125.918 45.3333 126.25 45.3333ZM115.583 45.3333H118.417C118.748 45.3333 119.066 45.2016 119.3 44.9672C119.535 44.7328 119.667 44.4149 119.667 44.0833V41.2501C119.667 40.9185 119.535 40.6006 119.3 40.3662C119.066 40.1318 118.748 40.0001 118.417 40.0001H115.583C115.252 40.0001 114.934 40.1318 114.699 40.3662C114.465 40.6006 114.333 40.9185 114.333 41.2501V44.0833C114.333 44.4149 114.465 44.7328 114.699 44.9672C114.934 45.2016 115.252 45.3333 115.583 45.3333ZM103.667 45.3333V41.3333C103.667 41.1582 103.701 40.9849 103.768 40.8231C103.835 40.6614 103.933 40.5144 104.057 40.3906C104.181 40.2668 104.328 40.1686 104.49 40.1015C104.651 40.0345 104.825 40.0001 105 40.0001H107.667C108.02 40.0001 108.359 40.1405 108.609 40.3906C108.859 40.6406 109 40.9797 109 41.3333V44.0001C109 44.3537 108.859 44.6928 108.609 44.9428C108.359 45.1929 108.02 45.3333 107.667 45.3333H103.667ZM136.917 56.0001H139.75C140.081 56.0001 140.399 55.8684 140.634 55.6339C140.868 55.3995 141 55.0816 141 54.7501V51.9168C141 51.5853 140.868 51.2673 140.634 51.0329C140.399 50.7985 140.081 50.6668 139.75 50.6668H136.917C136.585 50.6668 136.267 50.7985 136.033 51.0329C135.798 51.2673 135.667 51.5853 135.667 51.9168V54.7501C135.667 55.0816 135.798 55.3995 136.033 55.6339C136.267 55.8684 136.585 56.0001 136.917 56.0001ZM126.25 56.0001H129.083C129.415 56.0001 129.733 55.8684 129.967 55.6339C130.201 55.3995 130.333 55.0816 130.333 54.7501V51.9168C130.333 51.5853 130.201 51.2673 129.967 51.0329C129.733 50.7985 129.415 50.6668 129.083 50.6668H126.25C125.918 50.6668 125.6 50.7985 125.366 51.0329C125.132 51.2673 125 51.5853 125 51.9168V54.7501C125 55.0816 125.132 55.3995 125.366 55.6339C125.6 55.8684 125.918 56.0001 126.25 56.0001ZM115.583 56.0001H118.417C118.748 56.0001 119.066 55.8684 119.3 55.6339C119.535 55.3995 119.667 55.0816 119.667 54.7501V51.9168C119.667 51.5853 119.535 51.2673 119.3 51.0329C119.066 50.7985 118.748 50.6668 118.417 50.6668H115.583C115.252 50.6668 114.934 50.7985 114.699 51.0329C114.465 51.2673 114.333 51.5853 114.333 51.9168V54.7501C114.333 55.0816 114.465 55.3995 114.699 55.6339C114.934 55.8684 115.252 56.0001 115.583 56.0001Z" fill="#4BBE9E"/>
<path d="M83.6225 29.3333H86.3803C86.5472 29.3333 86.7061 29.3661 86.8525 29.4237C86.6121 29.5184 86.4058 29.6832 86.2604 29.8967C86.1149 30.1102 86.0371 30.3626 86.037 30.6209V33.3787C86.037 33.9231 86.3753 34.3875 86.8525 34.5759C86.7061 34.6337 86.5472 34.6665 86.3803 34.6665H83.6225C83.281 34.6665 82.9535 34.5309 82.7119 34.2894C82.4704 34.0479 82.3347 33.7204 82.3347 33.3789V30.6211C82.3347 30.2795 82.4704 29.952 82.7119 29.7105C82.9534 29.469 83.281 29.3333 83.6225 29.3333ZM94.2892 29.3333H97.047C97.2139 29.3333 97.3728 29.3661 97.5192 29.4237C97.2789 29.5184 97.0725 29.6832 96.9271 29.8967C96.7817 30.1102 96.7038 30.3626 96.7038 30.6209V33.3787C96.7038 33.9231 97.042 34.3875 97.5192 34.5759C97.3728 34.6337 97.2139 34.6665 97.047 34.6665H94.2892C94.1201 34.6666 93.9527 34.6333 93.7964 34.5686C93.6402 34.5039 93.4982 34.409 93.3787 34.2894C93.2591 34.1699 93.1643 34.0279 93.0996 33.8717C93.0349 33.7154 93.0016 33.548 93.0016 33.3789V30.6211C93.0016 30.452 93.0348 30.2845 93.0996 30.1283C93.1643 29.972 93.2591 29.83 93.3787 29.7105C93.4982 29.5909 93.6402 29.496 93.7964 29.4313C93.9527 29.3666 94.1201 29.3333 94.2892 29.3333ZM104.954 29.3333H107.712C107.879 29.3333 108.038 29.3661 108.184 29.4237C107.707 29.6122 107.368 30.0765 107.368 30.6209V33.3787C107.368 33.9231 107.707 34.3875 108.184 34.5759C108.038 34.6337 107.879 34.6665 107.712 34.6665H104.954C104.613 34.6665 104.285 34.5309 104.044 34.2894C103.802 34.0479 103.666 33.7204 103.666 33.3789V30.6211C103.666 30.2795 103.802 29.952 104.044 29.7105C104.285 29.469 104.613 29.3333 104.954 29.3333ZM115.621 29.3333H118.379C118.545 29.3333 118.704 29.3661 118.851 29.4237C118.373 29.6122 118.035 30.0765 118.035 30.6209V33.3787C118.035 33.9231 118.373 34.3875 118.851 34.5759C118.704 34.6337 118.545 34.6665 118.379 34.6665H115.621C115.279 34.6665 114.952 34.5309 114.71 34.2894C114.469 34.0479 114.333 33.7204 114.333 33.3789V30.6211C114.333 30.2795 114.469 29.952 114.71 29.7105C114.952 29.469 115.279 29.3333 115.621 29.3333ZM126.288 29.3333H129.045C129.212 29.3333 129.371 29.3661 129.518 29.4237C129.277 29.5184 129.071 29.6832 128.925 29.8967C128.78 30.1102 128.702 30.3626 128.702 30.6209V33.3787C128.702 33.9231 129.04 34.3875 129.518 34.5759C129.371 34.6337 129.212 34.6665 129.045 34.6665H126.288C125.946 34.6665 125.618 34.5309 125.377 34.2894C125.135 34.0479 125 33.7204 125 33.3789V30.6211C125 30.2795 125.135 29.952 125.377 29.7104C125.618 29.4689 125.946 29.3333 126.288 29.3333ZM136.954 29.3333H139.712C139.879 29.3333 140.038 29.3661 140.184 29.4237C139.707 29.6122 139.368 30.0765 139.368 30.6209V33.3787C139.368 33.9231 139.707 34.3875 140.184 34.5759C140.038 34.6337 139.879 34.6665 139.712 34.6665H136.954C136.613 34.6665 136.285 34.5309 136.044 34.2894C135.802 34.0479 135.666 33.7204 135.666 33.3789V30.6211C135.666 30.2795 135.802 29.952 136.044 29.7105C136.285 29.469 136.613 29.3333 136.954 29.3333ZM136.954 40H139.712C139.879 40 140.038 40.0328 140.184 40.0904C139.707 40.2789 139.368 40.7433 139.368 41.2876V44.0456C139.368 44.59 139.707 45.0543 140.184 45.2428C140.038 45.3006 139.879 45.3334 139.712 45.3334H136.954C136.613 45.3334 136.285 45.1978 136.044 44.9563C135.802 44.7148 135.666 44.3873 135.666 44.0458V41.2878C135.666 40.9462 135.802 40.6187 136.044 40.3772C136.285 40.1357 136.613 40 136.954 40ZM136.954 50.6667H139.712C139.879 50.6667 140.038 50.6995 140.184 50.7572C139.707 50.9456 139.368 51.41 139.368 51.9543V54.7123C139.368 55.2567 139.707 55.7211 140.184 55.9095C140.038 55.9673 139.879 56.0001 139.712 56.0001H136.954C136.613 56.0001 136.285 55.8645 136.044 55.623C135.802 55.3815 135.666 55.054 135.666 54.7125V51.9545C135.666 51.613 135.802 51.2854 136.044 51.0439C136.285 50.8024 136.613 50.6667 136.954 50.6667ZM126.288 40H129.045C129.212 40 129.371 40.0328 129.518 40.0904C129.277 40.1851 129.071 40.3499 128.925 40.5634C128.78 40.7769 128.702 41.0293 128.702 41.2876V44.0456C128.702 44.59 129.04 45.0543 129.518 45.2428C129.371 45.3006 129.212 45.3334 129.045 45.3334H126.288C125.946 45.3334 125.618 45.1978 125.377 44.9563C125.135 44.7148 125 44.3873 125 44.0458V41.2878C125 40.9462 125.135 40.6187 125.377 40.3772C125.618 40.1357 125.946 40 126.288 40ZM126.288 50.6667H129.045C129.212 50.6667 129.371 50.6995 129.518 50.7572C129.277 50.8518 129.071 51.0166 128.925 51.2301C128.78 51.4437 128.702 51.696 128.702 51.9543V54.7123C128.702 55.2567 129.04 55.7211 129.518 55.9095C129.371 55.9673 129.212 56.0001 129.045 56.0001H126.288C125.946 56.0001 125.618 55.8645 125.377 55.623C125.135 55.3815 125 55.054 125 54.7125V51.9545C125 51.7854 125.033 51.6179 125.098 51.4617C125.162 51.3054 125.257 51.1634 125.377 51.0438C125.496 50.9242 125.638 50.8294 125.795 50.7647C125.951 50.7 126.118 50.6667 126.288 50.6667ZM115.621 40H118.379C118.545 40 118.704 40.0328 118.851 40.0904C118.373 40.2789 118.035 40.7433 118.035 41.2876V44.0456C118.035 44.59 118.373 45.0543 118.851 45.2428C118.704 45.3006 118.545 45.3334 118.379 45.3334H115.621C115.279 45.3334 114.952 45.1978 114.71 44.9563C114.469 44.7148 114.333 44.3873 114.333 44.0458V41.2878C114.333 40.9462 114.469 40.6187 114.71 40.3772C114.952 40.1357 115.279 40 115.621 40ZM103.666 45.3333V41.2876C103.666 41.1185 103.7 40.9511 103.764 40.7948C103.829 40.6386 103.924 40.4966 104.044 40.3771C104.163 40.2575 104.305 40.1626 104.461 40.0979C104.618 40.0332 104.785 39.9999 104.954 40H107.712C107.879 40 108.038 40.0328 108.184 40.0904C107.707 40.2789 107.369 40.7433 107.369 41.2876V44.0456C107.369 44.59 107.707 45.0543 108.184 45.2428C108.038 45.3006 107.879 45.3334 107.712 45.3334H103.666V45.3333ZM115.621 50.6667H118.379C118.545 50.6667 118.704 50.6995 118.851 50.7572C118.373 50.9456 118.035 51.41 118.035 51.9543V54.7123C118.035 55.2567 118.373 55.7211 118.851 55.9095C118.704 55.9673 118.545 56.0001 118.379 56.0001H115.621C115.279 56.0001 114.952 55.8645 114.71 55.623C114.469 55.3815 114.333 55.054 114.333 54.7125V51.9545C114.333 51.7854 114.366 51.6179 114.431 51.4617C114.496 51.3054 114.591 51.1635 114.71 51.0439C114.83 50.9243 114.972 50.8294 115.128 50.7647C115.284 50.7 115.452 50.6667 115.621 50.6667Z" fill="#5DDCB8"/>
<path d="M80.701 22.4563V61.3332H76.9962V23.9999L80.701 22.4563Z" fill="#F9F4FE"/>
<path d="M76.9964 24.0001V10.6666C76.9964 7.72115 79.3842 5.3335 82.3295 5.3335H141.002C143.947 5.3335 146.335 7.72115 146.335 10.6666V24.0001H76.9964Z" fill="#5DDCB8"/>
<path d="M129.53 11.8738H133.001C133.321 11.8738 133.628 11.7467 133.855 11.5203C134.081 11.2939 134.208 10.9868 134.208 10.6667C134.208 10.3465 134.081 10.0394 133.855 9.81305C133.628 9.58666 133.321 9.45947 133.001 9.45947H129.53C129.21 9.45947 128.903 9.58666 128.676 9.81305C128.45 10.0394 128.323 10.3465 128.323 10.6667C128.323 10.9868 128.45 11.2939 128.676 11.5203C128.903 11.7467 129.21 11.8738 129.53 11.8738ZM121.001 11.8738H124.473C124.793 11.8738 125.1 11.7467 125.326 11.5203C125.553 11.2939 125.68 10.9868 125.68 10.6667C125.68 10.3465 125.553 10.0394 125.326 9.81305C125.1 9.58666 124.793 9.45947 124.473 9.45947H121.001C120.334 9.45947 119.794 9.99994 119.794 10.6667C119.794 11.3334 120.334 11.8738 121.001 11.8738ZM98.8613 11.8738H102.333C102.653 11.8738 102.96 11.7467 103.187 11.5203C103.413 11.2939 103.54 10.9868 103.54 10.6667C103.54 10.3465 103.413 10.0394 103.187 9.81305C102.96 9.58666 102.653 9.45947 102.333 9.45947H98.8613C98.1945 9.45947 97.6542 9.99994 97.6542 10.6667C97.6542 11.3334 98.1945 11.8738 98.8613 11.8738ZM90.3327 11.8738H93.8043C94.1245 11.8738 94.4315 11.7467 94.6579 11.5203C94.8843 11.2939 95.0115 10.9868 95.0115 10.6667C95.0115 10.3465 94.8843 10.0394 94.6579 9.81305C94.4315 9.58666 94.1245 9.45947 93.8043 9.45947H90.3327C90.0126 9.45947 89.7055 9.58666 89.4791 9.81305C89.2527 10.0394 89.1256 10.3465 89.1256 10.6667C89.1256 10.9868 89.2527 11.2939 89.4791 11.5203C89.7055 11.7467 90.0126 11.8738 90.3327 11.8738Z" fill="#4BBE9E"/>
<path d="M123.668 10C123.668 11.8409 125.161 13.3333 127.002 13.3333C128.842 13.3333 130.335 11.8409 130.335 10V3.33328C130.335 1.49234 128.843 0 127.002 0C125.161 0 123.668 1.49234 123.668 3.33328L123.668 10ZM92.9998 10C92.9998 11.8409 94.4922 13.3333 96.3331 13.3333C98.1741 13.3333 99.6666 11.8409 99.6666 10V3.33328C99.6666 1.49234 98.1742 0 96.3333 0C94.4923 0 93 1.49234 93 3.33328L92.9998 10Z" fill="#5DDCB8"/>
<path d="M96.3331 0C97.0175 0 97.6531 0.206875 98.1825 0.560625C97.288 1.15844 96.6985 2.17672 96.6985 3.33344V10C96.6985 11.1566 97.288 12.175 98.1825 12.7728C97.6353 13.1391 96.9916 13.3342 96.3331 13.3334C94.4922 13.3334 92.9999 11.8411 92.9999 10.0002V3.33328C92.9997 1.49234 94.492 0 96.3331 0ZM127.002 0C127.686 0 128.322 0.206875 128.851 0.560625C127.956 1.15844 127.367 2.17672 127.367 3.33344V10C127.367 11.1566 127.956 12.175 128.851 12.7728C128.304 13.1391 127.66 13.3342 127.002 13.3334C125.161 13.3334 123.668 11.8411 123.668 10.0002V3.33328C123.668 1.49234 125.16 0 127.002 0Z" fill="#4BBE9E"/>
<path d="M82.3294 5.33325H86.033C83.0875 5.33325 80.6998 7.72091 80.6998 10.6664V24H76.9964V10.6665C76.9962 7.72106 79.3841 5.33325 82.3294 5.33325Z" fill="#5DDCB8"/>
<path d="M146.335 17.4595H76.9962V19.874H146.335V17.4595Z" fill="#5DDCB8"/>
<path d="M91.6653 80C80.6196 80 71.6653 71.0457 71.6653 60C71.6653 48.9543 80.6196 40 91.6653 40C102.711 40 111.665 48.9543 111.665 60C111.665 71.0457 102.711 80 91.6653 80Z" fill="#5DDCB8"/>
<path d="M91.6656 74.6667C83.5654 74.6667 76.9988 68.1002 76.9988 60C76.9988 51.8998 83.5654 45.3333 91.6656 45.3333C99.7658 45.3333 106.332 51.8998 106.332 60C106.332 68.1002 99.7658 74.6667 91.6656 74.6667Z" fill="#F9F4FE"/>
<path d="M91.6653 58.5403C91.8238 58.5403 91.9808 58.5091 92.1272 58.4485C92.2737 58.3878 92.4068 58.2989 92.5189 58.1868C92.631 58.0747 92.7199 57.9416 92.7806 57.7951C92.8412 57.6487 92.8725 57.4917 92.8724 57.3331V50.6664C92.8724 50.3462 92.7453 50.0392 92.5189 49.8128C92.2925 49.5864 91.9854 49.4592 91.6653 49.4592C91.3451 49.4592 91.038 49.5864 90.8116 49.8128C90.5852 50.0392 90.4581 50.3462 90.4581 50.6664V57.3331C90.4581 57.6533 90.5852 57.9604 90.8116 58.1867C91.038 58.4131 91.3451 58.5403 91.6653 58.5403ZM84.9985 61.207H88.9987C89.3189 61.207 89.6259 61.0799 89.8523 60.8535C90.0787 60.6271 90.2059 60.32 90.2059 59.9999C90.2059 59.6797 90.0787 59.3726 89.8523 59.1462C89.6259 58.9199 89.3189 58.7927 88.9987 58.7927H84.9985C84.6784 58.7927 84.3713 58.9199 84.1449 59.1462C83.9185 59.3726 83.7913 59.6797 83.7913 59.9999C83.7913 60.32 83.9185 60.6271 84.1449 60.8535C84.3713 61.0799 84.6784 61.207 84.9985 61.207Z" fill="#4BBE9E"/>
<path d="M91.6656 40C92.2898 40 92.907 40.0302 93.5167 40.0861C83.339 41.0203 75.3679 49.5786 75.3679 60C75.3679 70.4214 83.3392 78.9797 93.5168 79.9139C92.9072 79.9698 92.29 80 91.6657 80C80.6201 80 71.6657 71.0456 71.6657 60C71.6657 48.9544 80.62 40 91.6656 40Z" fill="#5DDCB8"/>
<path d="M91.6657 45.3333C92.2922 45.3333 92.9096 45.3728 93.5155 45.449C86.2886 46.3586 80.6986 52.5264 80.6986 60C80.6986 67.4736 86.2886 73.6414 93.5155 74.5509C92.9096 74.6272 92.2922 74.6667 91.6657 74.6667C83.5655 74.6667 76.9989 68.1001 76.9989 60C76.9989 51.8998 83.5655 45.3333 91.6657 45.3333Z" fill="#F9F4FE"/>
<path d="M91.6653 62.6667C90.1925 62.6667 88.9986 61.4728 88.9986 60C88.9986 58.5272 90.1925 57.3333 91.6653 57.3333C93.1381 57.3333 94.332 58.5272 94.332 60C94.332 61.4728 93.1381 62.6667 91.6653 62.6667Z" fill="#6CEBC6"/>
</svg>
