<svg width="217" height="80" viewBox="0 0 217 80" fill="none" xmlns="http://www.w3.org/2000/svg">
<rect width="216.667" height="80" transform="translate(0.333374)" fill="#FDFCFD"/>
<path d="M139.102 78.953C125.914 80.349 112.725 80.349 99.5362 78.953C94.8055 78.4523 91.1202 74.6243 90.8171 69.8769C89.5457 49.9792 89.5457 30.0208 90.8171 10.1231C91.1201 5.37566 94.8053 1.54769 99.536 1.04696C112.725 -0.348988 125.913 -0.348988 139.102 1.04696C143.833 1.54769 147.518 5.37566 147.821 10.1231C149.092 30.0208 149.092 49.9792 147.821 69.8769C147.518 74.6243 143.833 78.4523 139.102 78.953Z" fill="#4BBE9E"/>
<path d="M98.1545 78.7058C94.1045 77.6788 91.0897 74.1504 90.8177 69.8768C89.5461 49.9792 89.5461 30.0208 90.8177 10.1231C91.0897 5.84944 94.1047 2.32118 98.1545 1.29419C95.7013 3.01335 94.0547 5.78348 93.852 8.9481C92.5304 29.6283 92.5304 50.3717 93.852 71.0519C94.0547 74.2164 95.7013 76.9866 98.1545 78.7058Z" fill="#4BBE9E"/>
<path d="M142.927 64.7467C142.676 68.6791 139.624 71.8501 135.706 72.2654C124.782 73.4212 113.857 73.4212 102.934 72.2654C99.0143 71.8501 95.9623 68.6791 95.7111 64.7467C94.6585 48.2656 94.6585 31.7341 95.7111 15.253C95.9623 11.3206 99.0141 8.14966 102.934 7.73432C104.21 7.59929 105.487 7.48016 106.766 7.37695C107.209 9.1074 108.688 10.4225 110.52 10.6172C116.37 11.237 122.269 11.237 128.118 10.6172C129.95 10.4225 131.429 9.1074 131.872 7.37695C133.152 7.48015 134.43 7.59928 135.706 7.73432C139.624 8.14966 142.676 11.3206 142.927 15.253C143.982 31.7341 143.982 48.2657 142.927 64.7467Z" fill="#F9F6F9"/>
<path d="M125.261 6.6836H113.378C113.219 6.6836 113.061 6.65229 112.914 6.59146C112.768 6.53062 112.634 6.44146 112.522 6.32906C112.409 6.21666 112.32 6.08322 112.259 5.93636C112.199 5.78951 112.167 5.6321 112.167 5.47315C112.167 5.31419 112.199 5.15678 112.259 5.00993C112.32 4.86307 112.409 4.72963 112.522 4.61723C112.634 4.50483 112.768 4.41567 112.914 4.35484C113.061 4.294 113.219 4.2627 113.378 4.2627H125.261C125.929 4.2627 126.471 4.80462 126.471 5.47315C126.471 6.14167 125.929 6.6836 125.261 6.6836Z" fill="#32856E"/>
<path d="M121.13 27.233C120.26 27.233 119.394 27.0327 118.591 26.6361C115.748 25.2329 114.577 21.7789 115.98 18.9364C116.66 17.5594 117.835 16.5296 119.29 16.0365C120.744 15.5435 122.303 15.6464 123.68 16.3261C125.057 17.0057 126.087 18.1809 126.58 19.6353C127.073 21.0895 126.97 22.6487 126.29 24.0257C125.611 25.4027 124.435 26.4325 122.981 26.9256C122.385 27.1286 121.76 27.2324 121.13 27.233ZM121.138 18.1516C120.779 18.1516 120.418 18.2107 120.067 18.3294C119.653 18.4686 119.27 18.6887 118.941 18.9768C118.612 19.265 118.344 19.6155 118.152 20.008C117.339 21.6534 118.017 23.6529 119.663 24.4652C120.054 24.6598 120.48 24.7748 120.916 24.8035C121.353 24.8323 121.79 24.7743 122.204 24.6328C122.618 24.4936 123.001 24.2735 123.33 23.9854C123.659 23.6973 123.927 23.3468 124.119 22.9543C124.314 22.5627 124.429 22.1365 124.458 21.7003C124.487 21.264 124.429 20.8264 124.287 20.4127C124.148 19.9983 123.928 19.6156 123.64 19.2868C123.351 18.958 123.001 18.6896 122.608 18.4971C122.152 18.2704 121.648 18.1522 121.138 18.1516Z" fill="#6CEBC6"/>
<path d="M93.3803 59.0568C96.6486 59.0568 99.298 56.4073 99.298 53.1391C99.298 49.8709 96.6486 47.2214 93.3803 47.2214C90.1121 47.2214 87.4626 49.8709 87.4626 53.1391C87.4626 56.4073 90.1121 59.0568 93.3803 59.0568Z" fill="#85F8D5"/>
<path d="M92.706 59.0183C92.0294 58.9413 91.3712 58.7475 90.7609 58.4455C87.8302 56.9988 86.6273 53.4504 88.074 50.5196C89.5207 47.5889 93.069 46.3859 95.9999 47.8326C96.6108 48.1335 97.1649 48.5381 97.6376 49.0284C95.2262 48.7493 92.7937 49.9852 91.6569 52.2881C90.5198 54.5913 91.018 57.2739 92.706 59.0183Z" fill="#85F8D5"/>
<path d="M103.332 58.0519C110.582 61.6309 116.196 63.5575 120.375 64.5694C126.284 66 130.484 58.9114 126.408 54.4012C126.371 54.3605 126.334 54.3201 126.298 54.2803C124.802 52.652 124.363 50.3115 125.219 48.273C126.202 45.9289 126.891 43.8616 127.371 42.0895C129.131 35.6034 126.553 28.6902 120.928 25.0137C120.316 24.6142 119.934 24.421 119.934 24.421C119.934 24.421 119.548 24.2346 118.859 23.9922C112.519 21.7622 105.464 23.9202 101.385 29.2611C100.27 30.7204 99.048 32.5241 97.7852 34.7306C96.6873 36.6493 94.5622 37.7239 92.3603 37.5273C92.3064 37.5225 92.252 37.5179 92.1972 37.5134C86.1381 37.0203 83.0649 44.665 87.7936 48.4854C91.1383 51.1879 96.0817 54.4728 103.332 58.0519Z" fill="#5DDCB8"/>
<path d="M119.934 24.4195C119.934 24.4195 119.763 24.3391 119.436 24.2819C116.421 23.7411 111.937 27.469 108.351 33.4443C107.372 35.0784 106.248 37.0586 105.004 39.4248C103.922 41.482 102.468 43.0002 101.28 43.3532C101.252 43.3613 101.221 43.3704 101.193 43.3801C98.2031 44.3009 94.9625 50.9346 95.7199 53.9297C92.3959 51.9456 89.8061 50.1092 87.7944 48.4839C83.0664 44.6645 86.1383 37.0184 92.1985 37.5132C92.2532 37.5162 92.3072 37.5207 92.3603 37.5269C94.5636 37.7233 96.6878 36.6484 97.7856 34.7295C99.0493 32.5232 100.271 30.7196 101.385 29.2604C105.465 23.9183 112.519 21.7606 118.859 23.991C119.548 24.2331 119.934 24.4195 119.934 24.4195Z" fill="#5DDCB8"/>
<path d="M79.4042 33.2757L79.2403 33.5596C78.6623 34.5606 77.408 34.9432 76.3699 34.4351L73.1764 32.8723C72.0326 32.3125 71.602 30.901 72.2388 29.7982L72.6459 29.093C73.2827 27.9902 74.7203 27.6573 75.777 28.368L78.7272 30.3522C79.6862 30.9972 79.982 32.2747 79.4042 33.2757ZM76.5031 43.7748V44.1026C76.5031 45.2585 75.608 46.2169 74.4549 46.296L70.9078 46.5393C69.6374 46.6266 68.5588 45.6193 68.5588 44.3459V43.5315C68.5588 42.2581 69.6374 41.2508 70.908 41.3381L74.455 41.5814C75.6082 41.6605 76.5031 42.619 76.5031 43.7748ZM79.2403 54.3178L79.4042 54.6016C79.9821 55.6026 79.6862 56.8803 78.7272 57.5253L75.777 59.5096C74.7203 60.2202 73.2827 59.8875 72.6459 58.7845L72.2388 58.0793C71.602 56.9765 72.0326 55.565 73.1764 55.0052L76.3699 53.4424C77.408 52.9342 78.6623 53.3168 79.2403 54.3178Z" fill="#4BBE9E"/>
</svg>
