<svg width="217" height="80" viewBox="0 0 217 80" fill="none" xmlns="http://www.w3.org/2000/svg">
<path d="M145.627 11.7136V74.4032C145.627 77.4941 143.122 79.9999 140.031 79.9999H85.7701C82.679 79.9999 80.1732 77.4941 80.1732 74.4032V11.7136L113.705 10.3124L145.627 11.7136Z" fill="#F9F4FE"/>
<path d="M85.0022 10.3124V69.5743C85.0022 72.6652 87.508 75.171 90.5991 75.171H144.859C145.104 75.171 145.344 75.1536 145.58 75.1233C145.226 77.8739 142.877 80 140.031 80H85.7701C82.679 80 80.1732 77.4943 80.1732 74.4033V11.7136L85.0022 10.3124Z" fill="#5DDCB8"/>
<path d="M80.1734 11.7136V5.59672C80.1734 2.50578 82.6792 0 85.7701 0H140.031C143.122 0 145.627 2.50578 145.627 5.59672V11.7136H80.1734Z" fill="#5DDCB8"/>
<path d="M85.77 0H90.5989C87.5078 0 85.002 2.50578 85.002 5.59672V11.7136H80.1731V5.59672C80.1733 2.50578 82.679 0 85.77 0Z" fill="#5DDCB8"/>
<path d="M109.151 31.7767C109.151 36.2486 111.128 40.2591 114.254 42.982L123.957 43.5386L133.756 42.982C136.882 40.2589 138.859 36.2486 138.859 31.7766C138.859 23.5731 132.208 16.923 124.005 16.923C115.802 16.923 109.151 23.5733 109.151 31.7767Z" fill="#5DDCB8"/>
<path d="M123.201 16.9449C116.983 18.7187 112.43 24.4426 112.43 31.2303C112.43 34.8324 113.713 38.1348 115.846 40.7065L115.325 42.5093L114.255 42.9814C111.128 40.2584 109.152 36.2487 109.152 31.7768C109.152 23.8429 115.372 17.3624 123.201 16.9449Z" fill="#5DDCB8"/>
<path d="M123.715 46.319C119.984 46.319 115.237 43.1054 115.237 43.1054L115.634 40.4461C117.53 37.8837 120.573 36.2222 124.005 36.2222C128.468 36.2222 132.274 39.0322 133.753 42.9789C132.133 44.3901 130.202 45.457 128.079 46.0628C128.079 46.0628 125.129 46.319 123.715 46.319Z" fill="#32856E"/>
<path d="M128.082 46.0623C126.756 46.4401 125.384 46.6313 124.005 46.6303C120.274 46.6303 116.866 45.2512 114.257 42.9789C114.597 42.075 115.061 41.2228 115.636 40.447C118.356 43.8808 122.563 46.0837 127.284 46.0837C127.55 46.0837 127.816 46.0765 128.082 46.0623Z" fill="#5DDCB8"/>
<path d="M130.135 31.888V33.3589C130.135 36.7711 127.369 39.5372 123.957 39.5372C120.545 39.5372 117.779 36.7711 117.779 33.3589V31.888L123.957 27.788L130.135 31.888Z" fill="#FFCFBE"/>
<path d="M123.957 23.6879C127.369 23.6879 130.135 26.454 130.135 29.8661V31.888L128.185 31.3288C126.914 30.9643 124.871 29.7041 124.188 29.2699C124.119 29.2269 124.04 29.206 123.959 29.21C123.879 29.214 123.802 29.2428 123.738 29.2924C122.613 30.1641 121.59 30.8246 120.307 31.1826L117.779 31.888V29.8661C117.779 26.454 120.545 23.6879 123.957 23.6879Z" fill="#0D0D17"/>
<path d="M83.7439 73.3411C76.7274 73.3411 71.0395 67.6532 71.0395 60.6367C71.0395 53.6203 76.7274 47.9324 83.7439 47.9324C90.7603 47.9324 96.4482 53.6203 96.4482 60.6367C96.4482 67.6532 90.7603 73.3411 83.7439 73.3411Z" fill="#5DDCB8"/>
<path d="M83.7437 47.9324C84.5696 47.9324 85.3762 48.0139 86.1582 48.1644C80.297 49.2925 75.8684 54.4463 75.8684 60.6368C75.8684 66.8272 80.297 71.9808 86.1582 73.1089C85.3625 73.2627 84.5541 73.3404 83.7437 73.341C76.7273 73.341 71.0393 67.6532 71.0393 60.6368C71.0393 53.6203 76.7273 47.9324 83.7437 47.9324Z" fill="#5DDCB8"/>
<path d="M92.6433 57.1648L90.288 54.8095C90.1698 54.6913 90.0294 54.5975 89.875 54.5336C89.7205 54.4696 89.555 54.4366 89.3878 54.4366C89.2206 54.4366 89.0551 54.4696 88.9007 54.5336C88.7462 54.5975 88.6059 54.6913 88.4877 54.8095L83.7098 59.5873C83.5933 59.7039 83.4352 59.7693 83.2704 59.7693C83.1056 59.7693 82.9475 59.7039 82.8309 59.5873L81.8122 58.5686C81.694 58.4504 81.5537 58.3566 81.3992 58.2926C81.2448 58.2286 81.0792 58.1957 80.912 58.1957C80.7449 58.1957 80.5793 58.2286 80.4249 58.2926C80.2704 58.3566 80.1301 58.4504 80.0119 58.5686L77.6566 60.9239C77.5383 61.0421 77.4446 61.1824 77.3806 61.3369C77.3166 61.4913 77.2837 61.6569 77.2837 61.8241C77.2837 61.9912 77.3166 62.1568 77.3806 62.3112C77.4446 62.4657 77.5383 62.606 77.6566 62.7242L80.4989 65.6809C80.8458 66.0418 81.2612 66.3299 81.7208 66.5282C82.1804 66.7266 82.6749 66.8314 83.1755 66.8363C83.676 66.8413 84.1726 66.7463 84.636 66.5571C85.0994 66.3678 85.5204 66.088 85.8744 65.7341L92.6433 58.9651C92.7615 58.8469 92.8553 58.7066 92.9193 58.5522C92.9832 58.3977 93.0162 58.2322 93.0162 58.065C93.0162 57.8978 92.9832 57.7323 92.9193 57.5778C92.8553 57.4234 92.7615 57.283 92.6433 57.1648Z" fill="#85F8D5"/>
<path d="M88.892 27.9137H104.135C104.529 27.9137 104.907 27.7573 105.185 27.4789C105.463 27.2006 105.62 26.8231 105.62 26.4295V23.12C105.62 22.7263 105.463 22.3488 105.185 22.0705C104.907 21.7922 104.529 21.6358 104.135 21.6357H88.892C88.4983 21.6358 88.1209 21.7922 87.8425 22.0705C87.5642 22.3488 87.4078 22.7263 87.4078 23.12V26.4295C87.4078 26.8231 87.5642 27.2006 87.8425 27.4789C88.1209 27.7573 88.4983 27.9137 88.892 27.9137ZM88.892 40.3806H104.135C104.529 40.3805 104.907 40.2242 105.185 39.9458C105.463 39.6675 105.62 39.29 105.62 38.8964V35.5868C105.62 35.1932 105.463 34.8157 105.185 34.5374C104.907 34.259 104.529 34.1027 104.135 34.1026H88.892C88.4983 34.1027 88.1209 34.259 87.8425 34.5374C87.5642 34.8157 87.4078 35.1932 87.4078 35.5868V38.8964C87.4078 39.29 87.5641 39.6675 87.8425 39.9459C88.1208 40.2242 88.4983 40.3806 88.892 40.3806Z" fill="#4BBE9E"/>
<path d="M104.01 51.9345H138.2C138.52 51.9345 138.827 51.8073 139.053 51.5809C139.28 51.3545 139.407 51.0475 139.407 50.7273C139.407 50.4072 139.28 50.1001 139.053 49.8737C138.827 49.6473 138.52 49.5201 138.2 49.5201H104.01C103.69 49.5201 103.383 49.6473 103.156 49.8737C102.93 50.1 102.803 50.4071 102.803 50.7273C102.803 51.0474 102.93 51.3545 103.156 51.5809C103.383 51.8073 103.69 51.9345 104.01 51.9345ZM104.01 58.6762H138.2C138.52 58.6762 138.827 58.5491 139.053 58.3227C139.28 58.0963 139.407 57.7892 139.407 57.4691C139.407 57.1489 139.28 56.8418 139.053 56.6154C138.827 56.389 138.52 56.2619 138.2 56.2619H104.01C103.69 56.2618 103.383 56.389 103.156 56.6154C102.93 56.8418 102.803 57.1488 102.803 57.469C102.803 57.7891 102.93 58.0962 103.156 58.3226C103.383 58.549 103.69 58.6762 104.01 58.6762ZM104.01 65.418H138.2C138.52 65.418 138.827 65.2908 139.053 65.0644C139.28 64.838 139.407 64.5309 139.407 64.2108C139.407 63.8906 139.28 63.5836 139.053 63.3572C138.827 63.1308 138.52 63.0036 138.2 63.0036H104.01C103.69 63.0036 103.383 63.1307 103.156 63.3571C102.93 63.5835 102.803 63.8905 102.803 64.2107C102.803 64.5309 102.93 64.8379 103.156 65.0643C103.383 65.2907 103.69 65.4179 104.01 65.418ZM104.01 72.1598H138.2C138.52 72.1598 138.827 72.0326 139.053 71.8063C139.28 71.5799 139.407 71.2728 139.407 70.9526C139.407 70.6325 139.28 70.3254 139.053 70.099C138.827 69.8726 138.52 69.7455 138.2 69.7455H104.01C103.69 69.7454 103.383 69.8726 103.156 70.099C102.93 70.3254 102.803 70.6324 102.803 70.9526C102.803 71.2727 102.93 71.5798 103.156 71.8062C103.383 72.0326 103.69 72.1598 104.01 72.1598Z" fill="#4BBE9E"/>
<path d="M96.7931 7.28214C98.5153 7.2887 98.2455 4.54855 96.558 4.89167C95.1599 5.1337 95.3747 7.31667 96.7931 7.28214ZM92.315 7.28214C94.0349 7.28417 93.7688 4.55339 92.0783 4.89167C90.6802 5.13433 90.8969 7.31808 92.315 7.28214ZM87.8353 7.28214C89.5575 7.28823 89.2874 4.54901 87.6002 4.89167C86.2019 5.13401 86.4166 7.31667 87.8353 7.28214Z" fill="#E9E9EB"/>
</svg>
