<svg width="218" height="80" viewBox="0 0 218 80" fill="none" xmlns="http://www.w3.org/2000/svg">
<path d="M125.762 26.0403C125.528 26.0404 125.299 25.9709 125.104 25.8408C124.974 25.7542 124.862 25.643 124.775 25.5133C124.688 25.3836 124.628 25.238 124.597 25.0849C124.566 24.9318 124.566 24.7741 124.596 24.6209C124.626 24.4676 124.686 24.3219 124.773 24.1919L137.617 4.89264C137.704 4.76259 137.815 4.65086 137.945 4.56384C138.075 4.47681 138.22 4.41619 138.373 4.38545C138.526 4.3547 138.684 4.35443 138.837 4.38464C138.991 4.41486 139.136 4.47497 139.266 4.56154C139.396 4.64806 139.508 4.75934 139.595 4.88903C139.682 5.01873 139.743 5.16429 139.773 5.31741C139.804 5.47053 139.804 5.62821 139.774 5.78144C139.744 5.93467 139.684 6.08045 139.597 6.21045L126.753 25.5097C126.644 25.6731 126.497 25.807 126.324 25.8996C126.151 25.9922 125.958 26.0405 125.762 26.0403ZM122.259 26.9617C122.074 26.9617 121.892 26.9184 121.727 26.8354L110.694 21.3098C110.555 21.2399 110.43 21.1432 110.328 21.0251C110.226 20.9071 110.148 20.77 110.098 20.6218C110.049 20.4736 110.03 20.3171 110.041 20.1614C110.052 20.0056 110.094 19.8535 110.164 19.7139C110.234 19.5742 110.33 19.4497 110.448 19.3474C110.566 19.2451 110.704 19.1671 110.852 19.1178C111 19.0685 111.156 19.0489 111.312 19.0601C111.468 19.0713 111.62 19.1131 111.76 19.1831L122.792 24.7087C122.932 24.7786 123.056 24.8754 123.159 24.9934C123.261 25.1115 123.339 25.2485 123.388 25.3967C123.438 25.5449 123.457 25.7014 123.446 25.8572C123.435 26.013 123.393 26.165 123.323 26.3047C123.224 26.5022 123.072 26.6684 122.884 26.7844C122.696 26.9005 122.48 26.9619 122.259 26.9617ZM95.4781 33.8651C95.2429 33.8652 95.013 33.7955 94.8175 33.6649C94.6219 33.5343 94.4694 33.3487 94.3794 33.1315C94.2893 32.9143 94.2656 32.6752 94.3114 32.4446C94.3571 32.2139 94.4702 32.002 94.6364 31.8356L106.104 20.3486C106.214 20.238 106.345 20.1503 106.489 20.0904C106.634 20.0305 106.788 19.9996 106.944 19.9995C107.101 19.9993 107.255 20.03 107.4 20.0896C107.544 20.1493 107.675 20.2368 107.786 20.3472C107.896 20.4575 107.984 20.5885 108.044 20.7328C108.104 20.877 108.134 21.0316 108.135 21.1878C108.135 21.344 108.104 21.4987 108.044 21.643C107.985 21.7873 107.897 21.9185 107.787 22.029L96.3196 33.5161C96.2093 33.6269 96.0782 33.7148 95.9337 33.7747C95.7893 33.8346 95.6344 33.8654 95.4781 33.8651ZM80.934 42.145C80.715 42.1452 80.5003 42.0849 80.3134 41.9708C80.1265 41.8567 79.9748 41.6931 79.8749 41.4983C79.8036 41.3593 79.7604 41.2077 79.7477 41.052C79.735 40.8963 79.7531 40.7397 79.801 40.591C79.8488 40.4423 79.9255 40.3045 80.0266 40.1855C80.1277 40.0664 80.2513 39.9684 80.3903 39.8972L90.2812 34.8228C90.4201 34.7515 90.5718 34.7082 90.7274 34.6955C90.8831 34.6828 91.0397 34.7009 91.1884 34.7488C91.337 34.7966 91.4748 34.8732 91.5939 34.9743C91.7129 35.0754 91.8109 35.199 91.8821 35.3379C91.9534 35.4769 91.9967 35.6286 92.0094 35.7842C92.0221 35.9399 92.004 36.0966 91.9561 36.2452C91.9083 36.3939 91.8316 36.5317 91.7305 36.6508C91.6294 36.7698 91.5058 36.8678 91.3668 36.939L81.4759 42.0134C81.3083 42.0999 81.1225 42.145 80.934 42.145Z" fill="#32856E"/>
<path d="M78.1454 45.9888C80.1764 45.9888 81.8229 44.3423 81.8229 42.3113C81.8229 40.2803 80.1764 38.6338 78.1454 38.6338C76.1144 38.6338 74.4679 40.2803 74.4679 42.3113C74.4679 44.3423 76.1144 45.9888 78.1454 45.9888Z" fill="#5DDCB8"/>
<path d="M93.5729 38.2621C95.6039 38.2621 97.2504 36.6156 97.2504 34.5846C97.2504 32.5536 95.6039 30.9071 93.5729 30.9071C91.5419 30.9071 89.8954 32.5536 89.8954 34.5846C89.8954 36.6156 91.5419 38.2621 93.5729 38.2621Z" fill="#5DDCB8"/>
<path d="M109 22.8086C111.031 22.8086 112.678 21.1621 112.678 19.1311C112.678 17.1001 111.031 15.4536 109 15.4536C106.969 15.4536 105.323 17.1001 105.323 19.1311C105.323 21.1621 106.969 22.8086 109 22.8086Z" fill="#5DDCB8"/>
<path d="M124.428 30.5353C126.459 30.5353 128.105 28.8888 128.105 26.8578C128.105 24.8268 126.459 23.1803 124.428 23.1803C122.397 23.1803 120.75 24.8268 120.75 26.8578C120.75 28.8888 122.397 30.5353 124.428 30.5353Z" fill="#5DDCB8"/>
<path d="M139.855 7.355C141.886 7.355 143.532 5.70853 143.532 3.6775C143.532 1.64647 141.886 0 139.855 0C137.824 0 136.177 1.64647 136.177 3.6775C136.177 5.70853 137.824 7.355 139.855 7.355Z" fill="#5DDCB8"/>
<path d="M78.4851 42.3112C78.4851 41.0215 79.1495 39.8878 80.154 39.2312C79.5571 38.8404 78.8589 38.6326 78.1454 38.6335C76.1143 38.6335 74.4679 40.28 74.4679 42.311C74.4679 44.3421 76.1145 45.9885 78.1454 45.9885C78.8868 45.9885 79.5765 45.7684 80.154 45.3909C79.1493 44.7346 78.4851 43.6009 78.4851 42.3112Z" fill="#5DDCB8"/>
<path d="M93.9126 34.5845C93.9126 33.2948 94.5769 32.1611 95.5815 31.5045C94.9845 31.1137 94.2864 30.906 93.5729 30.9069C91.5418 30.9069 89.8954 32.5533 89.8954 34.5844C89.8954 36.6155 91.5418 38.2619 93.5729 38.2619C94.3143 38.2619 95.004 38.0417 95.5815 37.6642C94.5769 37.008 93.9126 35.8742 93.9126 34.5845Z" fill="#5DDCB8"/>
<path d="M109.34 19.1312C109.34 17.8415 110.004 16.7077 111.009 16.0511C110.412 15.6603 109.714 15.4526 109 15.4535C106.969 15.4535 105.323 17.0999 105.323 19.131C105.323 21.1621 106.969 22.8085 109 22.8085C109.742 22.8085 110.431 22.5883 111.009 22.2108C110.004 21.5546 109.34 20.4207 109.34 19.1312Z" fill="#5DDCB8"/>
<path d="M124.767 26.8578C124.767 25.5681 125.432 24.4344 126.436 23.7778C125.839 23.387 125.141 23.1793 124.428 23.1802C122.397 23.1802 120.75 24.8266 120.75 26.8577C120.75 28.8888 122.397 30.5352 124.428 30.5352C125.169 30.5352 125.859 30.315 126.436 29.9375C125.432 29.2813 124.767 28.1474 124.767 26.8578Z" fill="#5DDCB8"/>
<path d="M140.194 3.6775C140.194 2.38781 140.859 1.25407 141.863 0.597503C141.266 0.206805 140.568 -0.000877141 139.855 2.78455e-06C137.824 2.78455e-06 136.177 1.64641 136.177 3.6775C136.177 5.7086 137.824 7.355 139.855 7.355C140.596 7.355 141.286 7.13485 141.863 6.75735C140.859 6.10094 140.194 4.96719 140.194 3.6775Z" fill="#5DDCB8"/>
<path d="M82.1232 55.9235H74.1685C73.9047 55.9235 73.6518 56.0282 73.4652 56.2148C73.2787 56.4013 73.174 56.6542 73.174 56.918V78.8106H83.1179V56.9181C83.1178 56.6544 83.0129 56.4014 82.8264 56.2149C82.6399 56.0284 82.387 55.9235 82.1232 55.9235Z" fill="#5DDCB8"/>
<path d="M97.5499 48.1967H89.5952C89.3315 48.1967 89.0785 48.3014 88.892 48.4879C88.7055 48.6745 88.6007 48.9274 88.6007 49.1912V78.8106H98.5446V49.1913C98.5446 48.9275 98.4398 48.6745 98.2533 48.488C98.0667 48.3014 97.8137 48.1967 97.5499 48.1967Z" fill="#5DDCB8"/>
<path d="M112.977 32.6759H105.023C104.892 32.6759 104.763 32.7016 104.642 32.7516C104.521 32.8016 104.412 32.8748 104.319 32.9672C104.227 33.0595 104.154 33.1692 104.104 33.2898C104.054 33.4105 104.028 33.5398 104.028 33.6704V78.8107H113.972V33.6704C113.972 33.4067 113.867 33.1537 113.681 32.9672C113.494 32.7807 113.241 32.6759 112.977 32.6759Z" fill="#5DDCB8"/>
<path d="M128.405 40.47H120.45C120.186 40.47 119.933 40.5748 119.747 40.7613C119.56 40.9478 119.456 41.2007 119.456 41.4645V78.8106H129.399V41.4645C129.399 41.2007 129.295 40.9478 129.108 40.7613C128.922 40.5748 128.669 40.47 128.405 40.47Z" fill="#5DDCB8"/>
<path d="M143.832 17.181H135.877C135.614 17.181 135.361 17.2858 135.174 17.4723C134.988 17.6588 134.883 17.9118 134.883 18.1756V78.8106H144.827V18.1757C144.827 17.9119 144.722 17.6589 144.536 17.4724C144.349 17.2858 144.096 17.181 143.832 17.181Z" fill="#5DDCB8"/>
<path d="M80.2796 55.9235H74.1685C74.0379 55.9235 73.9086 55.9492 73.7879 55.9992C73.6672 56.0491 73.5576 56.1224 73.4652 56.2148C73.3729 56.3071 73.2996 56.4167 73.2497 56.5374C73.1997 56.6581 73.174 56.7874 73.174 56.918V78.8106H79.2852V56.9181C79.2852 56.7875 79.3109 56.6582 79.3608 56.5375C79.4108 56.4169 79.484 56.3072 79.5764 56.2149C79.6687 56.1225 79.7783 56.0492 79.899 55.9992C80.0197 55.9492 80.149 55.9235 80.2796 55.9235Z" fill="#5DDCB8"/>
<path d="M95.7065 48.1967H89.5952C89.3315 48.1967 89.0785 48.3014 88.892 48.4879C88.7055 48.6745 88.6007 48.9274 88.6007 49.1912V78.8106H94.712V49.1913C94.7119 49.0607 94.7376 48.9314 94.7876 48.8107C94.8376 48.69 94.9108 48.5804 95.0032 48.488C95.0955 48.3956 95.2052 48.3224 95.3259 48.2724C95.4465 48.2224 95.5759 48.1967 95.7065 48.1967Z" fill="#5DDCB8"/>
<path d="M111.134 32.6759H105.023C104.892 32.6759 104.763 32.7016 104.642 32.7516C104.521 32.8016 104.412 32.8748 104.319 32.9672C104.227 33.0595 104.154 33.1692 104.104 33.2898C104.054 33.4105 104.028 33.5398 104.028 33.6704V78.8107H110.139V33.6704C110.139 33.5398 110.165 33.4105 110.215 33.2898C110.265 33.1691 110.338 33.0595 110.431 32.9671C110.523 32.8748 110.633 32.8015 110.753 32.7516C110.874 32.7016 111.003 32.6759 111.134 32.6759Z" fill="#5DDCB8"/>
<path d="M126.561 40.47H120.45C120.186 40.47 119.933 40.5748 119.747 40.7613C119.56 40.9478 119.456 41.2007 119.456 41.4645V78.8106H125.567V41.4645C125.567 41.3339 125.592 41.2046 125.642 41.0839C125.692 40.9633 125.766 40.8536 125.858 40.7613C125.95 40.6689 126.06 40.5957 126.181 40.5457C126.301 40.4957 126.431 40.47 126.561 40.47Z" fill="#5DDCB8"/>
<path d="M141.989 17.181H135.877C135.614 17.181 135.361 17.2858 135.174 17.4723C134.988 17.6588 134.883 17.9118 134.883 18.1756V78.8106H140.994V18.1757C140.994 17.9119 141.099 17.659 141.285 17.4724C141.472 17.2859 141.725 17.1811 141.989 17.181Z" fill="#5DDCB8"/>
<path d="M147.488 80.0001H70.5125C69.8556 80.0001 69.3232 79.4677 69.3232 78.8107C69.3232 78.1536 69.8557 77.6215 70.5125 77.6215H147.488C148.145 77.6215 148.677 78.1538 148.677 78.8107C148.677 79.4676 148.145 80.0001 147.488 80.0001Z" fill="#5DDCB8"/>
</svg>
