<svg width="217" height="80" viewBox="0 0 217 80" fill="none" xmlns="http://www.w3.org/2000/svg">
<path d="M138.667 52.5V67.5C138.667 74.4036 125.235 80 108.667 80C92.0982 80 78.6667 74.4036 78.6667 67.5V52.5H138.667Z" fill="#5DDCB8"/>
<path d="M108.667 65C92.0982 65 78.6667 59.4036 78.6667 52.5C78.6667 45.5964 92.0982 40 108.667 40C125.235 40 138.667 45.5964 138.667 52.5C138.667 59.4036 125.235 65 108.667 65Z" fill="#4BBE9E"/>
<path d="M138.667 32.5V47.5C138.667 54.4036 125.235 60 108.667 60C92.0982 60 78.6667 54.4036 78.6667 47.5V32.5H138.667Z" fill="#5DDCB8"/>
<path d="M108.667 45C92.0982 45 78.6667 39.4036 78.6667 32.5C78.6667 25.5964 92.0982 20 108.667 20C125.235 20 138.667 25.5964 138.667 32.5C138.667 39.4036 125.235 45 108.667 45Z" fill="#4BBE9E"/>
<path d="M138.667 12.5V27.5C138.667 34.4036 125.235 40 108.667 40C92.0982 40 78.6667 34.4036 78.6667 27.5V12.5H138.667Z" fill="#5DDCB8"/>
<path d="M108.667 25C92.0982 25 78.6667 19.4036 78.6667 12.5C78.6667 5.59644 92.0982 0 108.667 0C125.235 0 138.667 5.59644 138.667 12.5C138.667 19.4036 125.235 25 108.667 25Z" fill="#5DDCB8"/>
<path d="M91.683 2.19458C87.9247 4.28239 85.698 6.87661 85.698 9.68739C85.698 16.591 99.1294 22.1874 115.698 22.1874C122.003 22.1874 127.853 21.3771 132.682 19.9927C127.209 23.0329 118.489 24.9999 108.667 24.9999C92.0982 24.9999 78.6668 19.4035 78.6668 12.4999C78.6668 8.22317 83.8214 4.44817 91.683 2.19458Z" fill="#4BBE9E"/>
<path d="M118.837 72.9482C125.079 72.029 130.566 70.238 134.289 67.9052C134.421 67.8241 134.535 67.7178 134.626 67.5923C134.716 67.4668 134.781 67.3246 134.816 67.174C134.851 67.0233 134.856 66.8672 134.831 66.7146C134.805 66.5621 134.75 66.416 134.668 66.2849C134.586 66.1539 134.478 66.0403 134.352 65.9509C134.226 65.8615 134.083 65.798 133.932 65.764C133.781 65.73 133.625 65.7262 133.473 65.7529C133.321 65.7795 133.175 65.8361 133.045 65.9193C129.591 68.0838 124.424 69.7566 118.496 70.6296C118.191 70.678 117.918 70.8447 117.736 71.0933C117.553 71.3419 117.476 71.6525 117.521 71.9576C117.566 72.2628 117.729 72.538 117.976 72.7234C118.222 72.9088 118.532 72.9896 118.837 72.9482ZM118.837 52.9482C125.079 52.029 130.566 50.238 134.289 47.9052C134.421 47.8241 134.535 47.7178 134.626 47.5923C134.716 47.4668 134.781 47.3246 134.816 47.174C134.851 47.0233 134.856 46.8672 134.831 46.7147C134.805 46.5621 134.75 46.416 134.668 46.2849C134.586 46.1539 134.478 46.0403 134.352 45.9509C134.226 45.8615 134.083 45.798 133.932 45.764C133.781 45.73 133.625 45.7262 133.473 45.7529C133.321 45.7795 133.175 45.8361 133.045 45.9193C129.591 48.0838 124.424 49.7566 118.496 50.6296C118.191 50.678 117.918 50.8447 117.736 51.0933C117.553 51.3419 117.476 51.6525 117.521 51.9576C117.566 52.2628 117.729 52.538 117.976 52.7234C118.222 52.9088 118.532 52.9896 118.837 52.9482ZM118.837 32.9482C125.079 32.029 130.566 30.238 134.289 27.9052C134.421 27.8241 134.535 27.7178 134.626 27.5923C134.716 27.4668 134.781 27.3246 134.816 27.174C134.851 27.0233 134.856 26.8672 134.831 26.7146C134.805 26.5621 134.75 26.416 134.668 26.2849C134.586 26.1539 134.478 26.0403 134.352 25.9509C134.226 25.8615 134.083 25.798 133.932 25.764C133.781 25.73 133.625 25.7262 133.473 25.7529C133.321 25.7795 133.175 25.8361 133.045 25.9193C129.591 28.0838 124.424 29.7566 118.496 30.6296C118.191 30.678 117.918 30.8446 117.736 31.0933C117.553 31.3419 117.476 31.6525 117.521 31.9576C117.566 32.2628 117.729 32.538 117.976 32.7234C118.222 32.9088 118.532 32.9896 118.837 32.9482Z" fill="#4BBE9E"/>
<path d="M86.1667 68.6719C85.5195 68.6719 84.9949 68.1472 84.9949 67.5C84.9949 66.8528 85.5195 66.3281 86.1667 66.3281C86.814 66.3281 87.3386 66.8528 87.3386 67.5C87.3386 68.1472 86.814 68.6719 86.1667 68.6719Z" fill="#85F8D5"/>
<path d="M93.6667 71.1719C93.0195 71.1719 92.4949 70.6472 92.4949 70C92.4949 69.3528 93.0195 68.8281 93.6667 68.8281C94.314 68.8281 94.8386 69.3528 94.8386 70C94.8386 70.6472 94.314 71.1719 93.6667 71.1719Z" fill="#85F8D5"/>
<path d="M86.1667 48.6719C85.5195 48.6719 84.9949 48.1472 84.9949 47.5C84.9949 46.8528 85.5195 46.3281 86.1667 46.3281C86.814 46.3281 87.3386 46.8528 87.3386 47.5C87.3386 48.1472 86.814 48.6719 86.1667 48.6719Z" fill="#85F8D5"/>
<path d="M93.6667 51.1719C93.0195 51.1719 92.4949 50.6472 92.4949 50C92.4949 49.3528 93.0195 48.8281 93.6667 48.8281C94.314 48.8281 94.8386 49.3528 94.8386 50C94.8386 50.6472 94.314 51.1719 93.6667 51.1719Z" fill="#85F8D5"/>
<path d="M86.1667 28.6719C85.5195 28.6719 84.9949 28.1472 84.9949 27.5C84.9949 26.8528 85.5195 26.3281 86.1667 26.3281C86.814 26.3281 87.3386 26.8528 87.3386 27.5C87.3386 28.1472 86.814 28.6719 86.1667 28.6719Z" fill="#85F8D5"/>
<path d="M93.6667 31.1719C93.0195 31.1719 92.4949 30.6472 92.4949 30C92.4949 29.3528 93.0195 28.8281 93.6667 28.8281C94.314 28.8281 94.8386 29.3528 94.8386 30C94.8386 30.6472 94.314 31.1719 93.6667 31.1719Z" fill="#85F8D5"/>
</svg>
